<svg width="240" height="240" viewBox="0 0 240 240" fill="none" xmlns="http://www.w3.org/2000/svg">
<path d="M97.5403 125H90.8203V116.264H71.7803V110.328L90.7643 85.8H97.5403V110.216H104.316V116.264H97.5403V125ZM90.8203 94.984L79.0603 110.216H90.8203V94.984ZM123.23 125.84C113.374 125.84 107.55 120.632 107.55 114.248C107.55 109.712 110.686 106.24 115.782 104.56C111.638 102.768 109.342 99.352 109.342 95.544C109.342 89.832 114.494 84.96 123.23 84.96C131.91 84.96 137.006 89.776 137.006 95.544C137.006 99.296 134.71 102.712 130.622 104.56C135.718 106.184 138.798 109.712 138.798 114.248C138.798 120.52 133.198 125.84 123.23 125.84ZM123.23 102.376C127.486 102.376 130.398 99.968 130.398 96.496C130.398 93.136 127.486 90.784 123.23 90.784C118.974 90.784 116.062 93.136 116.062 96.496C116.062 99.968 118.974 102.376 123.23 102.376ZM123.23 119.736C128.606 119.736 131.854 116.936 131.854 113.464C131.854 110.048 128.606 107.192 123.23 107.192C117.854 107.192 114.55 110.048 114.55 113.464C114.55 116.936 117.854 119.736 123.23 119.736ZM151.36 125H143.632L161.496 91.848H141.056V85.8H168.888V91.848L151.36 125Z" fill="black"/>
<path d="M89.526 154.204C89.526 152.8 89.664 151.606 89.94 150.622C90.228 149.626 90.666 148.834 91.254 148.246C91.854 147.646 92.622 147.244 93.558 147.04C94.338 146.872 95.1 146.722 95.844 146.59C96.588 146.458 97.284 146.338 97.932 146.23L98.202 147.616C97.89 147.664 97.542 147.724 97.158 147.796C96.774 147.856 96.384 147.922 95.988 147.994C95.592 148.054 95.208 148.12 94.836 148.192C94.476 148.252 94.158 148.312 93.882 148.372C93.486 148.456 93.132 148.6 92.82 148.804C92.508 148.996 92.238 149.26 92.01 149.596C91.794 149.932 91.62 150.346 91.488 150.838C91.356 151.33 91.278 151.912 91.254 152.584H91.362C91.53 152.356 91.758 152.122 92.046 151.882C92.346 151.642 92.7 151.438 93.108 151.27C93.528 151.102 94.002 151.018 94.53 151.018C95.37 151.018 96.066 151.204 96.618 151.576C97.182 151.936 97.602 152.44 97.878 153.088C98.166 153.736 98.31 154.492 98.31 155.356C98.31 156.424 98.124 157.318 97.752 158.038C97.38 158.758 96.864 159.298 96.204 159.658C95.544 160.006 94.776 160.18 93.9 160.18C93.24 160.18 92.64 160.054 92.1 159.802C91.56 159.538 91.098 159.154 90.714 158.65C90.33 158.146 90.036 157.522 89.832 156.778C89.628 156.034 89.526 155.176 89.526 154.204ZM94.026 158.866C94.554 158.866 95.01 158.758 95.394 158.542C95.79 158.326 96.096 157.972 96.312 157.48C96.528 156.988 96.636 156.334 96.636 155.518C96.636 154.534 96.45 153.76 96.078 153.196C95.718 152.62 95.118 152.332 94.278 152.332C93.75 152.332 93.27 152.452 92.838 152.692C92.406 152.92 92.046 153.184 91.758 153.484C91.47 153.784 91.266 154.036 91.146 154.24C91.146 154.828 91.188 155.398 91.272 155.95C91.356 156.502 91.5 157 91.704 157.444C91.92 157.876 92.214 158.224 92.586 158.488C92.97 158.74 93.45 158.866 94.026 158.866ZM104.459 150.19C105.635 150.19 106.505 150.448 107.069 150.964C107.633 151.48 107.915 152.302 107.915 153.43V160H106.763L106.457 158.632H106.385C106.109 158.98 105.821 159.274 105.521 159.514C105.233 159.742 104.897 159.91 104.513 160.018C104.141 160.126 103.685 160.18 103.145 160.18C102.569 160.18 102.047 160.078 101.579 159.874C101.123 159.67 100.763 159.358 100.499 158.938C100.235 158.506 100.103 157.966 100.103 157.318C100.103 156.358 100.481 155.62 101.237 155.104C101.993 154.576 103.157 154.288 104.729 154.24L106.367 154.186V153.61C106.367 152.806 106.193 152.248 105.845 151.936C105.497 151.624 105.005 151.468 104.369 151.468C103.865 151.468 103.385 151.546 102.929 151.702C102.473 151.846 102.047 152.014 101.651 152.206L101.165 151.018C101.585 150.79 102.083 150.598 102.659 150.442C103.235 150.274 103.835 150.19 104.459 150.19ZM104.927 155.338C103.727 155.386 102.893 155.578 102.425 155.914C101.969 156.25 101.741 156.724 101.741 157.336C101.741 157.876 101.903 158.272 102.227 158.524C102.563 158.776 102.989 158.902 103.505 158.902C104.321 158.902 104.999 158.68 105.539 158.236C106.079 157.78 106.349 157.084 106.349 156.148V155.284L104.927 155.338ZM118.239 160H116.637V151.666H113.793C113.673 153.19 113.523 154.492 113.343 155.572C113.163 156.64 112.935 157.51 112.659 158.182C112.383 158.854 112.053 159.346 111.669 159.658C111.285 159.97 110.835 160.126 110.319 160.126C110.163 160.126 110.007 160.114 109.851 160.09C109.707 160.078 109.587 160.048 109.491 160V158.812C109.563 158.836 109.641 158.854 109.725 158.866C109.809 158.878 109.893 158.884 109.977 158.884C110.241 158.884 110.481 158.776 110.697 158.56C110.913 158.344 111.105 158.014 111.273 157.57C111.453 157.126 111.615 156.568 111.759 155.896C111.903 155.212 112.029 154.408 112.137 153.484C112.245 152.56 112.341 151.516 112.425 150.352H118.239V160ZM128.645 160H127.043V151.666H124.199C124.079 153.19 123.929 154.492 123.749 155.572C123.569 156.64 123.341 157.51 123.065 158.182C122.789 158.854 122.459 159.346 122.075 159.658C121.691 159.97 121.241 160.126 120.725 160.126C120.569 160.126 120.413 160.114 120.257 160.09C120.113 160.078 119.993 160.048 119.897 160V158.812C119.969 158.836 120.047 158.854 120.131 158.866C120.215 158.878 120.299 158.884 120.383 158.884C120.647 158.884 120.887 158.776 121.103 158.56C121.319 158.344 121.511 158.014 121.679 157.57C121.859 157.126 122.021 156.568 122.165 155.896C122.309 155.212 122.435 154.408 122.543 153.484C122.651 152.56 122.747 151.516 122.831 150.352H128.645V160ZM140.096 155.158C140.096 155.962 139.988 156.676 139.772 157.3C139.568 157.912 139.268 158.434 138.872 158.866C138.488 159.298 138.014 159.628 137.45 159.856C136.898 160.072 136.28 160.18 135.596 160.18C134.96 160.18 134.372 160.072 133.832 159.856C133.292 159.628 132.824 159.298 132.428 158.866C132.032 158.434 131.72 157.912 131.492 157.3C131.276 156.676 131.168 155.962 131.168 155.158C131.168 154.09 131.348 153.19 131.708 152.458C132.068 151.714 132.584 151.15 133.256 150.766C133.928 150.37 134.726 150.172 135.65 150.172C136.526 150.172 137.294 150.37 137.954 150.766C138.626 151.15 139.148 151.714 139.52 152.458C139.904 153.19 140.096 154.09 140.096 155.158ZM132.806 155.158C132.806 155.914 132.902 156.574 133.094 157.138C133.298 157.69 133.61 158.116 134.03 158.416C134.45 158.716 134.984 158.866 135.632 158.866C136.28 158.866 136.814 158.716 137.234 158.416C137.654 158.116 137.96 157.69 138.152 157.138C138.356 156.574 138.458 155.914 138.458 155.158C138.458 154.39 138.356 153.736 138.152 153.196C137.948 152.656 137.636 152.242 137.216 151.954C136.808 151.654 136.274 151.504 135.614 151.504C134.63 151.504 133.916 151.828 133.472 152.476C133.028 153.124 132.806 154.018 132.806 155.158ZM150.364 152.782C150.364 153.382 150.184 153.85 149.824 154.186C149.464 154.522 149.002 154.75 148.438 154.87V154.942C149.038 155.026 149.56 155.242 150.004 155.59C150.448 155.926 150.67 156.454 150.67 157.174C150.67 157.582 150.592 157.96 150.436 158.308C150.292 158.656 150.064 158.956 149.752 159.208C149.44 159.46 149.038 159.658 148.546 159.802C148.054 159.934 147.46 160 146.764 160H142.606V150.352H146.746C147.43 150.352 148.042 150.43 148.582 150.586C149.134 150.73 149.566 150.982 149.878 151.342C150.202 151.69 150.364 152.17 150.364 152.782ZM149.032 157.174C149.032 156.622 148.822 156.226 148.402 155.986C147.982 155.746 147.364 155.626 146.548 155.626H144.19V158.722H146.584C147.376 158.722 147.982 158.608 148.402 158.38C148.822 158.14 149.032 157.738 149.032 157.174ZM148.762 152.98C148.762 152.524 148.594 152.194 148.258 151.99C147.934 151.774 147.4 151.666 146.656 151.666H144.19V154.312H146.368C147.148 154.312 147.742 154.204 148.15 153.988C148.558 153.772 148.762 153.436 148.762 152.98Z" fill="#404040"/>
<path d="M240 120C240 186.274 186.274 240 120 240C53.7258 240 0 186.274 0 120C0 53.7258 53.7258 0 120 0C186.274 0 240 53.7258 240 120ZM14.8022 120C14.8022 178.099 61.9009 225.198 120 225.198C178.099 225.198 225.198 178.099 225.198 120C225.198 61.9009 178.099 14.8022 120 14.8022C61.9009 14.8022 14.8022 61.9009 14.8022 120Z" fill="#F3F3F3"/>
<mask id="path-4-inside-1_0_2026" fill="white">
<path d="M120 0C146.416 3.15009e-07 172.094 8.71649 193.051 24.7976C214.009 40.8787 229.074 63.4257 235.911 88.9417C242.748 114.458 240.975 141.517 230.866 165.922C220.757 190.327 202.877 210.715 180 223.923L172.599 211.104C192.654 199.525 208.328 181.652 217.19 160.257C226.052 138.863 227.607 115.141 221.613 92.7728C215.62 70.4043 202.413 50.6385 184.04 36.541C165.668 22.4435 143.158 14.8022 120 14.8022V0Z"/>
</mask>
<path d="M120 0C146.416 3.15009e-07 172.094 8.71649 193.051 24.7976C214.009 40.8787 229.074 63.4257 235.911 88.9417C242.748 114.458 240.975 141.517 230.866 165.922C220.757 190.327 202.877 210.715 180 223.923L172.599 211.104C192.654 199.525 208.328 181.652 217.19 160.257C226.052 138.863 227.607 115.141 221.613 92.7728C215.62 70.4043 202.413 50.6385 184.04 36.541C165.668 22.4435 143.158 14.8022 120 14.8022V0Z" fill="#EBFF00" stroke="black" stroke-width="2" mask="url(#path-4-inside-1_0_2026)"/>
</svg>
