<svg width="316" height="193" viewBox="0 0 316 193" fill="none" xmlns="http://www.w3.org/2000/svg">
<path d="M278.095 68H192.328C189.494 68 187.199 70.3899 187.199 73.3305V125.421C187.199 128.362 189.494 130.752 192.316 130.752H278.083C280.905 130.752 283.199 128.362 283.199 125.421V73.3305C283.211 70.3899 280.917 68 278.095 68ZM222.917 111.482H215.555V97.2174C215.555 96.9422 215.334 96.7169 215.064 96.7169C214.819 96.7169 214.623 96.8921 214.586 97.1298L210.279 111.482H204.991L200.696 97.1173C200.659 96.8921 200.463 96.7169 200.218 96.7169C199.948 96.7169 199.727 96.9422 199.727 97.2174V111.482H192.365V86.9569H198.684H200.573C201.923 86.9569 203.346 88.033 203.739 89.3469L207.322 101.297C207.506 101.897 207.788 101.885 207.972 101.297L211.555 89.3469C211.948 88.0205 213.371 86.9569 214.721 86.9569H216.598H222.917V111.482ZM250.279 111.482H242.917V96.9046C242.905 96.6669 242.721 96.4667 242.475 96.4667C242.303 96.4667 242.169 96.5543 242.095 96.7044V96.7169C242.095 96.7294 242.083 96.7419 242.083 96.7545L236.07 109.905C235.69 110.756 234.659 111.445 233.727 111.495H226.365V86.9694H233.727V101.234C233.727 101.509 233.948 101.735 234.218 101.735C234.389 101.735 234.537 101.647 234.623 101.522C234.647 101.472 234.672 101.434 234.684 101.372L240.537 88.5586C240.929 87.6952 241.984 87.007 242.917 86.9694H250.279V111.482ZM269.665 103.599H261.322V111.607H253.96V98.0933H277.285C276.156 101.284 273.175 103.574 269.665 103.599ZM277.592 96.842C277.592 96.842 264.807 96.842 264.794 96.842C258.537 96.842 253.408 92.4751 252.978 86.9569H269.641C274.119 86.9945 277.739 90.6983 277.739 95.2779C277.739 95.816 277.69 96.3415 277.592 96.842Z" fill="#404040"/>
<g clip-path="url(#clip0_38_3772)">
<path d="M104.799 127.4C90.684 127.4 79.1992 138.885 79.1992 153C79.1992 167.115 90.684 178.6 104.799 178.6C110.136 178.6 115.093 176.955 119.199 174.15C123.305 176.953 128.262 178.6 133.599 178.6C147.719 178.6 159.199 167.12 159.199 153C159.199 138.88 147.719 127.4 133.599 127.4C128.262 127.4 123.305 129.047 119.199 131.85C115.093 129.045 110.136 127.4 104.799 127.4ZM133.599 130.6C145.989 130.6 155.999 140.61 155.999 153C155.999 165.39 145.989 175.4 133.599 175.4C129.278 175.4 125.261 174.161 121.843 172.05C127.08 167.359 130.399 160.567 130.399 153C130.399 145.433 127.08 138.641 121.843 133.95C125.261 131.839 129.278 130.6 133.599 130.6Z" fill="#404040"/>
</g>
<g clip-path="url(#clip1_38_3772)">
<path d="M119.525 61.5696L118.655 57.2196H108.934L107.387 61.5387L99.5959 61.5541C103.305 52.6343 107.022 43.7177 110.747 34.8045C111.381 33.2926 112.507 32.5232 114.165 32.5309C115.434 32.5425 117.502 32.5425 120.375 32.5348L126.4 61.558L119.525 61.5696ZM111.122 51.261H117.386L115.047 40.357L111.122 51.261ZM60.8983 32.527L68.7321 32.5348L56.6217 61.5734L48.6912 61.5657C46.697 53.8955 44.7275 46.2188 42.7829 38.5358C42.3963 37.0046 41.6307 35.9336 40.1575 35.427C38.8467 34.9746 36.662 34.2786 33.5996 33.3313V32.5386H46.116C48.2813 32.5386 49.5457 33.5865 49.9517 35.7364C50.3616 37.8901 51.3901 43.373 53.0451 52.1852L60.8983 32.527ZM79.4969 32.5348L73.3025 61.5657L65.8476 61.558L72.0343 32.527L79.4969 32.5348ZM94.6156 31.9973C96.8467 31.9973 99.6577 32.6933 101.274 33.3313L99.9671 39.3517C98.5055 38.764 96.1004 37.9713 94.0781 37.9984C91.1395 38.0486 89.3221 39.2821 89.3221 40.4653C89.3221 42.3909 92.4773 43.3614 95.7253 45.4649C99.4335 47.8622 99.9207 50.016 99.8743 52.3553C99.824 57.2119 95.7253 62.0026 87.0795 62.0026C83.1355 61.9446 81.7125 61.6121 78.4955 60.4714L79.8565 54.1881C83.1316 55.5608 84.5197 55.9977 87.3192 55.9977C89.8828 55.9977 92.0829 54.9614 92.1023 53.1557C92.1177 51.872 91.3289 51.234 88.4521 49.6487C85.5753 48.0595 81.5385 45.8593 81.5927 41.4436C81.6584 35.7905 87.0137 31.9973 94.6195 31.9973H94.6156Z" fill="#404040"/>
</g>
<defs>
<clipPath id="clip0_38_3772">
<rect width="80" height="80" fill="white" transform="translate(79.1992 113)"/>
</clipPath>
<clipPath id="clip1_38_3772">
<rect width="92.8" height="92.8" fill="white" transform="translate(33.5996 0.599976)"/>
</clipPath>
</defs>
</svg>
