<svg width="721" height="120" viewBox="0 0 721 120" fill="none" xmlns="http://www.w3.org/2000/svg">
<path d="M179.788 81.8544L178.483 75.3294H163.902L161.582 81.808L149.895 81.8312C155.459 68.4514 161.034 55.0766 166.622 41.7068C167.573 39.439 169.261 38.2848 171.749 38.2964C173.652 38.3138 176.755 38.3138 181.064 38.3022L190.1 81.837L179.788 81.8544ZM167.185 66.3916H176.581L173.072 50.0356L167.185 66.3916ZM91.8484 38.2906L103.599 38.3022L85.4336 81.8602L73.5378 81.8486C70.5464 70.3433 67.5923 58.8283 64.6754 47.3038C64.0954 45.007 62.947 43.4004 60.7372 42.6406C58.771 41.962 55.494 40.918 50.9004 39.497V38.308H69.675C72.923 38.308 74.8196 39.8798 75.4286 43.1046C76.0434 46.3352 77.5862 54.5596 80.0686 67.7778L91.8484 38.2906ZM119.746 38.3022L110.455 81.8486L99.2724 81.837L108.552 38.2906L119.746 38.3022ZM142.424 37.496C145.771 37.496 149.988 38.54 152.412 39.497L150.452 48.5276C148.259 47.646 144.652 46.457 141.618 46.4976C137.21 46.573 134.484 48.4232 134.484 50.198C134.484 53.0864 139.217 54.5422 144.089 57.6974C149.651 61.2934 150.382 64.524 150.312 68.033C150.237 75.3178 144.089 82.504 131.12 82.504C125.204 82.417 123.07 81.9182 118.244 80.2072L120.286 70.7822C125.198 72.8412 127.281 73.4966 131.48 73.4966C135.325 73.4966 138.625 71.9422 138.654 69.2336C138.678 67.308 137.494 66.351 133.179 63.973C128.864 61.5892 122.809 58.289 122.89 51.6654C122.989 43.1858 131.022 37.496 142.43 37.496H142.424Z" fill="#404040"/>
<path d="M423.644 12H294.994C290.742 12 287.301 15.5849 287.301 19.9957V98.132C287.301 102.543 290.742 106.128 294.976 106.128H423.626C427.859 106.128 431.301 102.543 431.301 98.132V19.9957C431.319 15.5849 427.877 12 423.644 12ZM340.877 77.2231H329.835V55.8262C329.835 55.4132 329.503 55.0754 329.098 55.0754C328.73 55.0754 328.436 55.3382 328.381 55.6948L321.92 77.2231H313.988L307.546 55.676C307.491 55.3382 307.196 55.0754 306.828 55.0754C306.423 55.0754 306.092 55.4132 306.092 55.8262V77.2231H295.049V40.4354H304.528H307.362C309.387 40.4354 311.522 42.0495 312.111 44.0203L317.485 61.9449C317.761 62.8458 318.184 62.8271 318.46 61.9449L323.835 44.0203C324.423 42.0308 326.558 40.4354 328.583 40.4354H331.399H340.877V77.2231ZM381.92 77.2231H370.877V55.3569C370.859 55.0003 370.583 54.7 370.215 54.7C369.957 54.7 369.755 54.8314 369.644 55.0566V55.0754C369.644 55.0942 369.626 55.1129 369.626 55.1317L360.607 74.8582C360.037 76.1345 358.491 77.1668 357.092 77.2419H346.049V40.4542H357.092V61.8511C357.092 62.264 357.423 62.6018 357.828 62.6018C358.086 62.6018 358.307 62.4705 358.436 62.2828C358.473 62.2077 358.509 62.1514 358.528 62.0575L367.307 42.8378C367.896 41.5428 369.479 40.5105 370.877 40.4542H381.92V77.2231ZM411 65.3985H398.485V77.4108H387.442V57.14H422.43C420.736 61.9262 416.264 65.3609 411 65.3985ZM422.89 55.2631C422.89 55.2631 403.712 55.2631 403.693 55.2631C394.307 55.2631 386.614 48.7126 385.969 40.4354H410.963C417.681 40.4917 423.111 46.0474 423.111 52.9169C423.111 53.724 423.037 54.5123 422.89 55.2631Z" fill="#404040"/>
<path d="M577.701 21.6C556.528 21.6 539.301 38.8272 539.301 60C539.301 81.1728 556.528 98.4 577.701 98.4C585.705 98.4 593.142 95.9319 599.301 91.725C605.459 95.9299 612.895 98.4 620.901 98.4C642.08 98.4 659.301 81.1793 659.301 60C659.301 38.8207 642.08 21.6 620.901 21.6C612.895 21.6 605.459 24.0701 599.301 28.275C593.142 24.0681 585.705 21.6 577.701 21.6ZM620.901 26.4C639.486 26.4 654.501 41.4148 654.501 60C654.501 78.5852 639.486 93.6 620.901 93.6C614.419 93.6 608.394 91.7421 603.266 88.575C611.123 81.5386 616.101 71.3511 616.101 60C616.101 48.649 611.123 38.4614 603.266 31.425C608.394 28.2579 614.419 26.4 620.901 26.4Z" fill="#404040"/>
</svg>
