<svg width="138" height="26" viewBox="0 0 138 26" fill="none" xmlns="http://www.w3.org/2000/svg">
<path d="M18.6197 9.98616V16.1244C18.6197 17.0816 17.8419 17.8593 16.8847 17.8593H15.7719V12.8459C15.7719 11.8887 14.9942 11.1109 14.0369 11.1109H6.27148V9.98616C6.27148 9.02895 7.04922 8.25122 8.01244 8.25122H11.1115L13.7917 6.23507C14.2045 5.92396 14.7967 6.22909 14.7788 6.74957L14.731 8.25122H16.8847C17.8419 8.25122 18.6197 9.02895 18.6197 9.98616Z" fill="white"/>
<path d="M14.0339 20.7215H10.9325L8.25168 22.7364C7.83706 23.0481 7.2466 22.7412 7.26335 22.2231L7.31178 20.7215H5.16043C4.20021 20.7215 3.42188 19.9431 3.42188 18.9829V12.8489C3.42188 11.8887 4.20021 11.1104 5.16043 11.1104H14.0339C14.9941 11.1104 15.7724 11.8887 15.7724 12.8489V18.9835C15.7718 19.9437 14.9935 20.7215 14.0339 20.7215Z" fill="#EBFF00"/>
<path d="M16.8865 7.71336H15.288L15.3185 6.7687C15.334 6.31939 15.096 5.91078 14.6975 5.70319C14.2985 5.49559 13.8276 5.53567 13.4698 5.80488L10.9332 7.71276H8.01431C6.75732 7.71276 5.73429 8.73282 5.73429 9.98617V10.5713H5.16177C3.906 10.5713 2.88477 11.5925 2.88477 12.8483V18.9829C2.88477 20.2386 3.906 21.2605 5.16177 21.2605H6.75672L6.72623 22.2063C6.71245 22.6544 6.95057 23.0618 7.34841 23.2682C7.51834 23.3562 7.70141 23.3999 7.88327 23.3999C8.12796 23.3999 8.37025 23.3209 8.57665 23.1665L11.1133 21.2599H14.0346C15.2904 21.2599 16.3122 20.238 16.3122 18.9823V18.3984H16.8865C18.1399 18.3984 19.1599 17.3783 19.1599 16.1244V9.98617C19.1599 8.73282 18.1393 7.71336 16.8865 7.71336ZM15.2347 18.9829C15.2347 19.6446 14.6969 20.183 14.0346 20.183H10.9332C10.8165 20.183 10.7029 20.2207 10.6096 20.2913L7.92992 22.3056C7.91855 22.3152 7.89043 22.3368 7.84497 22.3128C7.8007 22.2901 7.80192 22.2536 7.80252 22.241L7.85095 20.7394C7.85574 20.5934 7.80129 20.4522 7.69959 20.3475C7.5979 20.2428 7.45909 20.1836 7.31312 20.1836H5.16177C4.50067 20.1836 3.96224 19.6458 3.96224 18.9835V12.8483C3.96224 12.1866 4.50007 11.6482 5.16177 11.6482H14.0346C14.6963 11.6482 15.2347 12.1866 15.2347 12.8483V18.9829ZM18.0825 16.1244C18.0825 16.7842 17.5464 17.3209 16.8865 17.3209H16.3122V12.8477C16.3122 11.5919 15.2904 10.5707 14.0346 10.5707H6.81177V9.98617C6.81177 9.32629 7.35082 8.78965 8.01431 8.78965H11.1133C11.2299 8.78965 11.3436 8.75195 11.4369 8.68134L14.1178 6.66459C14.1279 6.65623 14.1573 6.63588 14.2003 6.65802C14.244 6.68075 14.2428 6.71726 14.2422 6.73219L14.1944 8.23384C14.1896 8.37981 14.244 8.52103 14.3457 8.6257C14.4474 8.7304 14.5862 8.78965 14.7322 8.78965H16.8865C17.5464 8.78965 18.0825 9.32629 18.0825 9.98617V16.1244Z" fill="#262626"/>
<path d="M7.80825 18.9427V13.2227H10.2842C11.0469 13.2227 11.6515 13.3834 12.0983 13.7048C12.545 14.0262 12.7683 14.5083 12.7683 15.1511C12.7683 15.7885 12.545 16.2679 12.0983 16.5893C11.6515 16.9107 11.0469 17.0714 10.2842 17.0714H8.54368L9.1402 16.4831V18.9427H7.80825ZM9.1402 16.622L8.54368 16.0336H10.276C10.641 16.0336 10.9243 15.9601 11.1259 15.813C11.3274 15.6605 11.4282 15.4426 11.4282 15.1593C11.4282 14.8815 11.3274 14.669 11.1259 14.5219C10.9243 14.3748 10.641 14.3013 10.276 14.3013H8.54368L9.1402 13.6721V16.622ZM7.01562 18.2072V17.529H10.9052V18.2072H7.01562Z" fill="#262626"/>
<path d="M32.9457 6.83434H37.1533V19.3143H32.9457V6.83434ZM29.0591 19.3143H24.8516V6.83434H29.0591V19.3143ZM33.231 14.7146H28.7739V11.2558H33.231V14.7146ZM38.3203 19.3143L43.7758 6.83434H47.912L53.3676 19.3143H49.0174L44.9882 8.83114H46.6284L42.5991 19.3143H38.3203ZM41.5651 17.1393L42.6348 14.1084H48.3756L49.4453 17.1393H41.5651ZM62.0787 16.0517L61.1694 16.961V6.83434H65.3057V16.961L64.3786 16.0517H68.7288L67.8017 16.961V6.83434H71.9379V19.3143H54.5194V6.83434H58.6556V16.961L57.7464 16.0517H62.0787ZM78.6128 18.4942L79.843 15.5882C80.366 15.8021 80.9008 15.9685 81.4476 16.0874C82.0062 16.2062 82.5411 16.2835 83.0522 16.3191C83.5632 16.3429 84.0149 16.3191 84.4071 16.2478C84.8112 16.1765 85.1322 16.0577 85.3699 15.8913C85.6076 15.7249 85.7264 15.505 85.7264 15.2316C85.7264 14.9463 85.6076 14.7502 85.3699 14.6433C85.1322 14.5363 84.841 14.4828 84.4963 14.4828H81.1267V11.4519H84.1397C84.4963 11.4519 84.7637 11.3866 84.942 11.2558C85.1322 11.1132 85.2272 10.929 85.2272 10.7031C85.2272 10.4535 85.1203 10.2574 84.9063 10.1148C84.7043 9.97217 84.425 9.87709 84.0684 9.82955C83.7237 9.77012 83.3315 9.76417 82.8917 9.81172C82.4519 9.84737 81.9943 9.93652 81.5189 10.0791C81.0554 10.2099 80.6037 10.3822 80.1639 10.5962L78.9338 7.52966C79.8133 7.12554 80.7344 6.85217 81.6972 6.70954C82.6718 6.55503 83.6167 6.52532 84.5319 6.6204C85.459 6.7036 86.291 6.89972 87.0279 7.20875C87.7767 7.51777 88.371 7.92783 88.8108 8.43892C89.2506 8.93812 89.4704 9.5324 89.4704 10.2218C89.4704 10.8161 89.31 11.3509 88.9891 11.8263C88.6682 12.2899 88.2284 12.6524 87.6698 12.9139C87.123 13.1754 86.499 13.3061 85.7978 13.3061L85.8869 12.4682C86.707 12.4682 87.4202 12.6167 88.0263 12.9139C88.6444 13.1991 89.1198 13.5914 89.4526 14.0906C89.7973 14.5898 89.9696 15.1603 89.9696 15.8021C89.9696 16.3964 89.8092 16.9313 89.4883 17.4067C89.1674 17.8702 88.7216 18.2684 88.1511 18.6012C87.5925 18.9221 86.9388 19.1658 86.19 19.3322C85.4531 19.4986 84.6567 19.5818 83.801 19.5818C82.9571 19.5937 82.0894 19.5045 81.198 19.3143C80.3184 19.1361 79.4567 18.8627 78.6128 18.4942ZM90.4131 19.3143L95.8687 6.83434H100.005L105.46 19.3143H101.11L97.081 8.83114H98.7212L94.692 19.3143H90.4131ZM93.6579 17.1393L94.7276 14.1084H100.468L101.538 17.1393H93.6579ZM106.612 19.3143V6.83434H110.748V13.3239L115.045 6.83434H119.003V19.3143H114.867V12.8426L110.588 19.3143H106.612ZM112.799 6.1212C111.384 6.1212 110.38 5.85972 109.786 5.33674C109.203 4.80189 108.912 4.0412 108.912 3.05469H111.711C111.711 3.44692 111.788 3.73812 111.943 3.92829C112.109 4.10657 112.395 4.19572 112.799 4.19572C113.215 4.19572 113.506 4.10657 113.672 3.92829C113.839 3.73812 113.922 3.44692 113.922 3.05469H116.721C116.721 4.0412 116.418 4.80189 115.812 5.33674C115.217 5.85972 114.213 6.1212 112.799 6.1212ZM121.22 19.3143V6.83434H124.679L129.671 14.982H127.852L132.701 6.83434H136.16L136.196 19.3143H132.363L132.327 12.6108H132.933L129.617 18.1911H127.763L124.304 12.6108H125.053V19.3143H121.22Z" fill="#262626"/>
</svg>
