<svg width="61" height="60" viewBox="0 0 61 60" fill="none" xmlns="http://www.w3.org/2000/svg">
<path d="M23.4382 49.5957L23.2743 50.068L23.4381 49.5957C12.5077 45.8034 6.72136 33.8681 10.5137 22.9379C14.3061 12.0076 26.2411 6.22118 37.1715 10.0137L37.3236 9.57525L37.1715 10.0137C48.1017 13.8058 53.8881 25.7411 50.0958 36.6713C46.3033 47.6017 34.3683 53.388 23.4382 49.5957Z" fill="#EBFF00" stroke="black"/>
<path d="M23.8697 43.1086C17.2137 39.8948 13.8646 32.1099 16.3448 24.9609L17.1167 25.2287C14.5933 32.5014 18.4586 40.4724 25.73 42.9945C33.0027 45.5179 40.9727 41.6538 43.4958 34.3813L44.2679 34.6491C41.5968 42.3472 33.1606 46.4374 25.4622 43.7667C24.9127 43.576 24.381 43.3555 23.8697 43.1086Z" fill="#262626"/>
<path d="M30.2057 20.2642C29.039 23.6271 27.1099 26.0121 25.8971 25.5913C24.6841 25.1705 24.647 22.1032 25.8137 18.7403C26.9804 15.3774 28.9097 12.9925 30.1223 13.4132C31.3352 13.8341 31.3725 16.9013 30.2057 20.2642Z" fill="black"/>
<path d="M40.6843 23.9C39.5175 27.2629 37.5885 29.6479 36.3756 29.227C35.1628 28.8064 35.1254 25.739 36.2922 22.376C37.4589 19.0131 39.3882 16.6282 40.6009 17.049C41.8137 17.4699 41.8511 20.5373 40.6843 23.9Z" fill="black"/>
<path d="M14.5338 25.5837C14.4309 25.534 14.3491 25.4412 14.3169 25.3222C14.2581 25.1045 14.3872 24.8801 14.605 24.8214C16.037 24.435 17.4132 24.6144 18.6963 25.3535C18.8918 25.4663 18.9591 25.716 18.8462 25.9115C18.7336 26.1072 18.4837 26.1753 18.2882 26.0616C17.1854 25.424 16.0497 25.278 14.8178 25.6101C14.7191 25.637 14.6193 25.6251 14.5338 25.5837Z" fill="#262626"/>
<path d="M45.2113 36.2277C45.1538 36.2 45.1022 36.1582 45.0615 36.1037C44.2996 35.0793 43.317 34.492 42.057 34.3082C41.8332 34.2758 41.6793 34.0679 41.7119 33.845C41.7445 33.6217 41.9519 33.4672 42.1752 33.4998C43.6401 33.7136 44.8317 34.4251 45.7169 35.6159C45.8516 35.797 45.8141 36.0529 45.6328 36.1877C45.5067 36.2816 45.3438 36.2917 45.2113 36.2277Z" fill="#262626"/>
</svg>
