<svg width="190" height="36" viewBox="0 0 190 36" fill="none" xmlns="http://www.w3.org/2000/svg">
<path d="M24.8729 13.8271V22.3262C24.8729 23.6516 23.796 24.7285 22.4706 24.7285H20.9298V17.7867C20.9298 16.4614 19.853 15.3845 18.5276 15.3845H7.77539V13.8271C7.77539 12.5018 8.85225 11.4249 10.186 11.4249H14.4769L18.1879 8.63332C18.7595 8.20255 19.5796 8.62504 19.5547 9.34571L19.4885 11.4249H22.4706C23.796 11.4249 24.8729 12.5018 24.8729 13.8271Z" fill="white"/>
<path d="M18.5236 28.691H14.2294L10.5175 31.481C9.94341 31.9125 9.12585 31.4876 9.14904 30.7702L9.2161 28.691H6.23731C4.90778 28.691 3.83008 27.6133 3.83008 26.2838V17.7905C3.83008 16.461 4.90778 15.3833 6.23731 15.3833H18.5236C19.8532 15.3833 20.9309 16.461 20.9309 17.7905V26.2846C20.93 27.6141 19.8524 28.691 18.5236 28.691Z" fill="#EBFF00"/>
<path d="M22.473 10.6803H20.2596L20.3019 9.37231C20.3234 8.75018 19.9937 8.18442 19.442 7.89698C18.8895 7.60955 18.2376 7.66504 17.7422 8.03779L14.2299 10.6795H10.1884C8.44793 10.6795 7.03143 12.0919 7.03143 13.8273V14.6374H6.23871C4.49996 14.6374 3.08594 16.0514 3.08594 17.7902V26.2842C3.08594 28.023 4.49996 29.4378 6.23871 29.4378H8.44711L8.40489 30.7475C8.38581 31.368 8.71551 31.932 9.26637 32.2178C9.50165 32.3396 9.75514 32.4001 10.0069 32.4001C10.3457 32.4001 10.6812 32.2907 10.967 32.077L14.4793 29.437H18.5242C20.2629 29.437 21.6778 28.0222 21.6778 26.2834V25.4749H22.473C24.2085 25.4749 25.6208 24.0626 25.6208 22.3263V13.8273C25.6208 12.0919 24.2077 10.6803 22.473 10.6803ZM20.1859 26.2842C20.1859 27.2004 19.4412 27.9459 18.5242 27.9459H14.2299C14.0684 27.9459 13.911 27.9981 13.7818 28.0959L10.0715 30.885C10.0558 30.8983 10.0169 30.9281 9.95391 30.8949C9.89261 30.8634 9.89431 30.8129 9.89513 30.7955L9.96219 28.7163C9.96883 28.5142 9.89343 28.3187 9.75262 28.1737C9.61181 28.0288 9.41962 27.9468 9.21751 27.9468H6.23871C5.32334 27.9468 4.57782 27.2021 4.57782 26.2851V17.7902C4.57782 16.874 5.32251 16.1285 6.23871 16.1285H18.5242C19.4404 16.1285 20.1859 16.874 20.1859 17.7902V26.2842ZM24.1289 22.3263C24.1289 23.24 23.3867 23.983 22.473 23.983H21.6778V17.7893C21.6778 16.0506 20.2629 14.6366 18.5242 14.6366H8.52333V13.8273C8.52333 12.9136 9.26971 12.1705 10.1884 12.1705H14.4793C14.6408 12.1705 14.7982 12.1183 14.9274 12.0206L18.6393 9.22816C18.6534 9.21659 18.694 9.18841 18.7537 9.21906C18.8141 9.25053 18.8125 9.30109 18.8117 9.32176L18.7454 11.401C18.7387 11.6031 18.8141 11.7986 18.9549 11.9435C19.0958 12.0885 19.2879 12.1705 19.4901 12.1705H22.473C23.3867 12.1705 24.1289 12.9136 24.1289 13.8273V22.3263Z" fill="#262626"/>
<path d="M9.90217 26.2286V18.3086H13.3304C14.3864 18.3086 15.2236 18.5311 15.8422 18.9761C16.4607 19.4211 16.7699 20.0887 16.7699 20.9788C16.7699 21.8613 16.4607 22.5251 15.8422 22.9701C15.2236 23.4151 14.3864 23.6376 13.3304 23.6376H10.9205L11.7464 22.823V26.2286H9.90217ZM11.7464 23.0153L10.9205 22.2007H13.3191C13.8245 22.2007 14.2167 22.0989 14.4958 21.8952C14.7749 21.684 14.9144 21.3823 14.9144 20.9901C14.9144 20.6054 14.7749 20.3112 14.4958 20.1076C14.2167 19.9039 13.8245 19.8021 13.3191 19.8021H10.9205L11.7464 18.9309V23.0153ZM8.80469 25.2103V24.2712H14.1903V25.2103H8.80469Z" fill="#262626"/>
<path d="M44.7073 9.46286H50.5331V26.7429H44.7073V9.46286ZM39.3258 26.7429H33.5V9.46286H39.3258V26.7429ZM45.1023 20.374H38.9309V15.5849H45.1023V20.374ZM52.149 26.7429L59.7028 9.46286H65.4299L72.9837 26.7429H66.9604L61.3814 12.2277H63.6525L58.0735 26.7429H52.149ZM56.6418 23.7312L58.1229 19.5346H66.0717L67.5529 23.7312H56.6418ZM85.0453 22.2254L83.7863 23.4844V9.46286H89.5134V23.4844L88.2297 22.2254H94.253L92.9694 23.4844V9.46286H98.6965V26.7429H74.5785V9.46286H80.3056V23.4844L79.0466 22.2254H85.0453ZM107.939 25.6073L109.642 21.5835C110.366 21.8798 111.107 22.1102 111.864 22.2748C112.637 22.4393 113.378 22.5463 114.085 22.5957C114.793 22.6286 115.418 22.5957 115.962 22.4969C116.521 22.3982 116.965 22.2336 117.295 22.0032C117.624 21.7728 117.788 21.4684 117.788 21.0898C117.788 20.6949 117.624 20.4233 117.295 20.2752C116.965 20.1271 116.562 20.053 116.085 20.053H111.419V15.8565H115.591C116.085 15.8565 116.455 15.766 116.702 15.5849C116.965 15.3874 117.097 15.1323 117.097 14.8197C117.097 14.4741 116.949 14.2025 116.653 14.005C116.373 13.8075 115.986 13.6759 115.493 13.6101C115.015 13.5278 114.472 13.5196 113.863 13.5854C113.254 13.6348 112.621 13.7582 111.962 13.9557C111.321 14.1367 110.695 14.3753 110.086 14.6716L108.383 10.4256C109.601 9.86606 110.876 9.48755 112.209 9.29006C113.559 9.07612 114.867 9.03498 116.134 9.16664C117.418 9.28184 118.57 9.55338 119.59 9.98126C120.627 10.4092 121.45 10.9769 122.059 11.6846C122.668 12.3758 122.972 13.1986 122.972 14.1532C122.972 14.976 122.75 15.7166 122.306 16.3749C121.861 17.0167 121.253 17.5186 120.479 17.8807C119.722 18.2428 118.858 18.4238 117.887 18.4238L118.01 17.2636C119.146 17.2636 120.133 17.4693 120.973 17.8807C121.829 18.2757 122.487 18.8188 122.948 19.51C123.425 20.2012 123.663 20.9911 123.663 21.8798C123.663 22.7026 123.441 23.4432 122.997 24.1015C122.553 24.7433 121.936 25.2946 121.146 25.7554C120.372 26.1998 119.467 26.5372 118.43 26.7676C117.41 26.998 116.307 27.1132 115.122 27.1132C113.954 27.1296 112.752 27.0062 111.518 26.7429C110.3 26.496 109.107 26.1175 107.939 25.6073ZM124.278 26.7429L131.831 9.46286H137.558L145.112 26.7429H139.089L133.51 12.2277H135.781L130.202 26.7429H124.278ZM128.77 23.7312L130.251 19.5346H138.2L139.681 23.7312H128.77ZM146.707 26.7429V9.46286H152.434V18.4485L158.383 9.46286H163.864V26.7429H158.137V17.782L152.212 26.7429H146.707ZM155.273 8.47544C153.315 8.47544 151.924 8.11338 151.101 7.38926C150.295 6.64869 149.892 5.59544 149.892 4.22949H153.767C153.767 4.77258 153.874 5.17578 154.088 5.43909C154.319 5.68595 154.713 5.80938 155.273 5.80938C155.849 5.80938 156.252 5.68595 156.483 5.43909C156.713 5.17578 156.828 4.77258 156.828 4.22949H160.704C160.704 5.59544 160.284 6.64869 159.445 7.38926C158.622 8.11338 157.231 8.47544 155.273 8.47544ZM166.933 26.7429V9.46286H171.722L178.634 20.7442H176.116L182.831 9.46286H187.62L187.669 26.7429H182.361L182.312 17.461H183.151L178.56 25.1877H175.993L171.204 17.461H172.24V26.7429H166.933Z" fill="#262626"/>
</svg>
