<svg width="190" height="36" viewBox="0 0 190 36" fill="none" xmlns="http://www.w3.org/2000/svg">
<path d="M25.244 13.8273V22.3263C25.244 23.6517 24.1671 24.7286 22.8417 24.7286H21.3009V17.7869C21.3009 16.4615 20.2241 15.3846 18.8987 15.3846H8.14648V13.8273C8.14648 12.5019 9.22335 11.425 10.557 11.425H14.848L18.559 8.63344C19.1306 8.20267 19.9507 8.62516 19.9258 9.34583L19.8596 11.425H22.8417C24.1671 11.425 25.244 12.5019 25.244 13.8273Z" fill="black"/>
<path d="M18.8947 28.6911H14.6005L10.8886 31.4811C10.3145 31.9127 9.49694 31.4877 9.52014 30.7703L9.5872 28.6911H6.6084C5.27887 28.6911 4.20117 27.6134 4.20117 26.2839V17.7906C4.20117 16.4611 5.27887 15.3834 6.6084 15.3834H18.8947C20.2243 15.3834 21.302 16.4611 21.302 17.7906V26.2847C21.3011 27.6143 20.2234 28.6911 18.8947 28.6911Z" fill="#EBFF00"/>
<path d="M22.8441 10.6802H20.6307L20.6729 9.37219C20.6945 8.75006 20.3648 8.18429 19.8131 7.89686C19.2606 7.60943 18.6087 7.66492 18.1133 8.03767L14.601 10.6794H10.5595C8.81903 10.6794 7.40253 12.0917 7.40253 13.8271V14.6373H6.60981C4.87105 14.6373 3.45703 16.0513 3.45703 17.7901V26.2841C3.45703 28.0229 4.87105 29.4377 6.60981 29.4377H8.8182L8.77598 30.7473C8.7569 31.3678 9.08661 31.9319 9.63746 32.2177C9.87275 32.3395 10.1262 32.4 10.378 32.4C10.7168 32.4 11.0523 32.2906 11.3381 32.0769L14.8504 29.4369H18.8953C20.634 29.4369 22.0489 28.022 22.0489 26.2833V25.4748H22.8441C24.5796 25.4748 25.9919 24.0625 25.9919 22.3262V13.8271C25.9919 12.0917 24.5787 10.6802 22.8441 10.6802ZM20.557 26.2841C20.557 27.2003 19.8123 27.9458 18.8953 27.9458H14.601C14.4395 27.9458 14.2821 27.998 14.1529 28.0957L10.4426 30.8849C10.4269 30.8981 10.388 30.928 10.325 30.8948C10.2637 30.8633 10.2654 30.8128 10.2662 30.7954L10.3333 28.7162C10.3399 28.5141 10.2645 28.3186 10.1237 28.1736C9.9829 28.0287 9.79072 27.9467 9.5886 27.9467H6.60981C5.69443 27.9467 4.94892 27.202 4.94892 26.2849V17.7901C4.94892 16.8739 5.69361 16.1284 6.60981 16.1284H18.8953C19.8115 16.1284 20.557 16.8739 20.557 17.7901V26.2841ZM24.5 22.3262C24.5 23.2399 23.7578 23.9829 22.8441 23.9829H22.0489V17.7892C22.0489 16.0505 20.634 14.6365 18.8953 14.6365H8.89442V13.8271C8.89442 12.9135 9.6408 12.1704 10.5595 12.1704H14.8504C15.0119 12.1704 15.1693 12.1182 15.2985 12.0205L19.0104 9.22804C19.0245 9.21647 19.0651 9.18828 19.1247 9.21893C19.1852 9.25041 19.1836 9.30096 19.1828 9.32164L19.1165 11.4008C19.1098 11.603 19.1852 11.7985 19.326 11.9434C19.4668 12.0884 19.659 12.1704 19.8612 12.1704H22.8441C23.7578 12.1704 24.5 12.9135 24.5 13.8271V22.3262Z" fill="#EBFF00"/>
<path d="M10.2733 26.2283V18.3083H13.7015C14.7575 18.3083 15.5947 18.5309 16.2133 18.9759C16.8318 19.4209 17.141 20.0884 17.141 20.9785C17.141 21.861 16.8318 22.5248 16.2133 22.9698C15.5947 23.4148 14.7575 23.6374 13.7015 23.6374H11.2916L12.1175 22.8227V26.2283H10.2733ZM12.1175 23.0151L11.2916 22.2005H13.6902C14.1956 22.2005 14.5878 22.0986 14.8669 21.895C15.146 21.6838 15.2855 21.3821 15.2855 20.9898C15.2855 20.6051 15.146 20.311 14.8669 20.1073C14.5878 19.9037 14.1956 19.8018 13.6902 19.8018H11.2916L12.1175 18.9306V23.0151ZM9.17578 25.2101V24.271H14.5614V25.2101H9.17578Z" fill="#262626"/>
<path d="M45.0784 9.46286H50.9042V26.7429H45.0784V9.46286ZM39.6969 26.7429H33.8711V9.46286H39.6969V26.7429ZM45.4734 20.374H39.302V15.5849H45.4734V20.374ZM52.5201 26.7429L60.0739 9.46286H65.801L73.3548 26.7429H67.3315L61.7525 12.2277H64.0236L58.4446 26.7429H52.5201ZM57.0129 23.7312L58.494 19.5346H66.4428L67.924 23.7312H57.0129ZM85.4164 22.2254L84.1574 23.4844V9.46286H89.8845V23.4844L88.6008 22.2254H94.6241L93.3405 23.4844V9.46286H99.0676V26.7429H74.9496V9.46286H80.6767V23.4844L79.4177 22.2254H85.4164ZM108.31 25.6073L110.013 21.5836C110.737 21.8798 111.478 22.1102 112.235 22.2748C113.008 22.4393 113.749 22.5463 114.457 22.5957C115.164 22.6286 115.79 22.5957 116.333 22.4969C116.892 22.3982 117.337 22.2336 117.666 22.0032C117.995 21.7728 118.159 21.4684 118.159 21.0898C118.159 20.6949 117.995 20.4233 117.666 20.2752C117.337 20.1271 116.933 20.053 116.456 20.053H111.79V15.8565H115.962C116.456 15.8565 116.826 15.766 117.073 15.5849C117.337 15.3874 117.468 15.1323 117.468 14.8197C117.468 14.4741 117.32 14.2025 117.024 14.005C116.744 13.8075 116.357 13.6759 115.864 13.6101C115.386 13.5278 114.843 13.5196 114.234 13.5854C113.625 13.6348 112.992 13.7582 112.334 13.9557C111.692 14.1367 111.066 14.3753 110.457 14.6716L108.754 10.4256C109.972 9.86606 111.247 9.48755 112.58 9.29006C113.93 9.07612 115.238 9.03498 116.505 9.16664C117.789 9.28184 118.941 9.55338 119.961 9.98126C120.998 10.4092 121.821 10.9769 122.43 11.6846C123.039 12.3758 123.343 13.1986 123.343 14.1532C123.343 14.976 123.121 15.7166 122.677 16.3749C122.233 17.0167 121.624 17.5186 120.85 17.8807C120.093 18.2428 119.229 18.4238 118.258 18.4238L118.382 17.2636C119.517 17.2636 120.505 17.4693 121.344 17.8807C122.2 18.2757 122.858 18.8188 123.319 19.51C123.796 20.2012 124.035 20.9911 124.035 21.8798C124.035 22.7026 123.812 23.4432 123.368 24.1015C122.924 24.7433 122.307 25.2946 121.517 25.7554C120.743 26.1998 119.838 26.5372 118.801 26.7676C117.781 26.998 116.678 27.1132 115.493 27.1132C114.325 27.1296 113.124 27.0062 111.889 26.7429C110.671 26.496 109.478 26.1175 108.31 25.6073ZM124.649 26.7429L132.202 9.46286H137.93L145.483 26.7429H139.46L133.881 12.2277H136.152L130.573 26.7429H124.649ZM129.141 23.7312L130.623 19.5346H138.571L140.053 23.7312H129.141ZM147.078 26.7429V9.46286H152.805V18.4485L158.755 9.46286H164.235V26.7429H158.508V17.782L152.583 26.7429H147.078ZM155.644 8.47544C153.686 8.47544 152.295 8.11338 151.472 7.38926C150.666 6.64869 150.263 5.59544 150.263 4.22949H154.138C154.138 4.77258 154.245 5.17578 154.459 5.43909C154.69 5.68595 155.085 5.80938 155.644 5.80938C156.22 5.80938 156.623 5.68595 156.854 5.43909C157.084 5.17578 157.199 4.77258 157.199 4.22949H161.075C161.075 5.59544 160.655 6.64869 159.816 7.38926C158.993 8.11338 157.603 8.47544 155.644 8.47544ZM167.304 26.7429V9.46286H172.093L179.005 20.7442H176.487L183.202 9.46286H187.991L188.04 26.7429H182.733L182.683 17.461H183.523L178.931 25.1877H176.364L171.575 17.461H172.611V26.7429H167.304Z" fill="white"/>
</svg>
