<svg width="146" height="34" viewBox="0 0 146 34" fill="none" xmlns="http://www.w3.org/2000/svg">
<path d="M25.1924 16.3012C25.7102 16.4255 26.2107 16.5324 26.6809 16.624C26.2107 16.7157 25.7102 16.8226 25.1924 16.9469C22.5564 17.5795 19.3591 18.6861 17.4588 20.5991C15.5127 22.5583 14.4399 25.8529 13.847 28.5682C13.7595 28.9691 13.6819 29.3599 13.6133 29.7349C13.5446 29.3599 13.4671 28.9691 13.3795 28.5682C12.7867 25.8529 11.7139 22.5583 9.76779 20.5991C7.86739 18.6861 4.67011 17.5795 2.03414 16.9469C1.51631 16.8226 1.01588 16.7157 0.545654 16.624C1.01588 16.5324 1.51631 16.4255 2.03414 16.3012C4.67011 15.6686 7.86739 14.562 9.76779 12.6489C11.7139 10.6898 12.7867 7.39514 13.3795 4.67988C13.4671 4.27899 13.5446 3.88823 13.6133 3.51318C13.6819 3.88823 13.7595 4.27899 13.847 4.67988C14.4399 7.39514 15.5127 10.6898 17.4588 12.6489C19.3591 14.562 22.5564 15.6686 25.1924 16.3012Z" stroke="#404040"/>
<path d="M46.5074 18.1419C45.3311 22.6401 43.574 26.5081 41.7014 29.1256C40.7641 30.4359 39.8137 31.4105 38.9135 32.0003C38.0132 32.5902 37.2122 32.7661 36.5282 32.5872C35.8443 32.4084 35.2319 31.8629 34.7356 30.9078C34.2393 29.9528 33.8877 28.6377 33.7118 27.0363C33.3603 23.8372 33.7215 19.6042 34.8978 15.106C36.074 10.6079 37.8312 6.73986 39.7037 4.1223C40.641 2.81204 41.5914 1.83743 42.4916 1.2476C43.3919 0.657747 44.1929 0.481847 44.8769 0.660707C45.5609 0.839557 46.1732 1.38506 46.6695 2.3401C47.1658 3.29511 47.5174 4.61019 47.6934 6.21158C48.0449 9.41067 47.6836 13.6438 46.5074 18.1419Z" stroke="#404040"/>
<path d="M50.5074 18.1419C49.3311 22.6401 47.574 26.5081 45.7014 29.1256C44.7641 30.4359 43.8137 31.4105 42.9135 32.0003C42.0132 32.5902 41.2122 32.7661 40.5282 32.5872C39.8443 32.4084 39.2319 31.8629 38.7356 30.9078C38.2393 29.9528 37.8877 28.6377 37.7118 27.0363C37.3603 23.8372 37.7215 19.6042 38.8978 15.106C40.074 10.6079 41.8312 6.73986 43.7037 4.1223C44.641 2.81204 45.5914 1.83743 46.4916 1.2476C47.3919 0.657747 48.1929 0.481847 48.8769 0.660707C49.5609 0.839557 50.1732 1.38506 50.6695 2.3401C51.1658 3.29511 51.5174 4.61019 51.6934 6.21158C52.0449 9.41067 51.6836 13.6438 50.5074 18.1419Z" stroke="#404040"/>
<path d="M54.5074 18.1419C53.3311 22.6401 51.574 26.5081 49.7014 29.1256C48.7641 30.4359 47.8137 31.4105 46.9135 32.0003C46.0132 32.5902 45.2122 32.7661 44.5282 32.5872C43.8443 32.4084 43.2319 31.8629 42.7356 30.9078C42.2393 29.9528 41.8877 28.6377 41.7118 27.0363C41.3603 23.8372 41.7215 19.6042 42.8978 15.106C44.074 10.6079 45.8312 6.73986 47.7037 4.1223C48.641 2.81204 49.5914 1.83743 50.4916 1.2476C51.3919 0.657747 52.1929 0.481847 52.8769 0.660707C53.5609 0.839557 54.1732 1.38506 54.6695 2.3401C55.1658 3.29511 55.5174 4.61019 55.6934 6.21158C56.0449 9.41067 55.6836 13.6438 54.5074 18.1419Z" stroke="#404040"/>
<path d="M58.5074 18.1419C57.3311 22.6401 55.574 26.5081 53.7014 29.1256C52.7641 30.4359 51.8137 31.4105 50.9135 32.0003C50.0132 32.5902 49.2122 32.7661 48.5282 32.5872C47.8443 32.4084 47.2319 31.8629 46.7356 30.9078C46.2393 29.9528 45.8877 28.6377 45.7118 27.0363C45.3603 23.8372 45.7215 19.6042 46.8978 15.106C48.074 10.6079 49.8312 6.73986 51.7037 4.1223C52.641 2.81204 53.5914 1.83743 54.4916 1.2476C55.3919 0.657747 56.1929 0.481847 56.8769 0.660707C57.5609 0.839557 58.1732 1.38506 58.6695 2.3401C59.1658 3.29511 59.5174 4.61019 59.6934 6.21158C60.0449 9.41067 59.6836 13.6438 58.5074 18.1419Z" stroke="#404040"/>
<path d="M62.5074 18.1419C61.3311 22.6401 59.574 26.5081 57.7014 29.1256C56.7641 30.4359 55.8137 31.4105 54.9135 32.0003C54.0132 32.5902 53.2122 32.7661 52.5282 32.5872C51.8443 32.4084 51.2319 31.8629 50.7356 30.9078C50.2393 29.9528 49.8877 28.6377 49.7118 27.0363C49.3603 23.8372 49.7215 19.6042 50.8978 15.106C52.074 10.6079 53.8312 6.73986 55.7037 4.1223C56.641 2.81204 57.5914 1.83743 58.4916 1.2476C59.3919 0.657747 60.1929 0.481847 60.8769 0.660707C61.5609 0.839557 62.1732 1.38506 62.6695 2.3401C63.1658 3.29511 63.5174 4.61019 63.6934 6.21158C64.0449 9.41067 63.6836 13.6438 62.5074 18.1419Z" stroke="#404040"/>
<path d="M135.372 16.3934L121.309 2.33081L107.246 16.3934L121.309 30.456L135.372 16.3934Z" stroke="#404040"/>
<path d="M145.18 16.8541L131.117 2.7915L117.054 16.8541L131.117 30.9167L145.18 16.8541Z" stroke="#404040"/>
<path fill-rule="evenodd" clip-rule="evenodd" d="M101.935 16.6023C101.922 8.30757 95.1885 1.59303 86.894 1.60524C78.5993 1.61723 71.8849 8.35113 71.8969 16.6459C71.9091 24.9405 78.643 31.655 86.9377 31.6429C95.2324 31.6308 101.947 24.8971 101.935 16.6023ZM86.8926 0.605242C95.7394 0.592223 102.922 7.75386 102.935 16.6008C102.947 25.4478 95.7861 32.63 86.9392 32.6429C78.0922 32.6558 70.9099 25.4943 70.8969 16.6473C70.8841 7.80031 78.0455 0.618039 86.8926 0.605242Z" fill="#404040"/>
<path fill-rule="evenodd" clip-rule="evenodd" d="M99.1466 17.938C98.0864 16.8778 96.9866 16.9493 96.6582 17.0588C96.3963 17.1461 96.1131 17.0045 96.0258 16.7425C95.9385 16.4806 96.0801 16.1974 96.342 16.1101C97.0137 15.8862 98.5139 15.8911 99.8537 17.2309C100.049 17.4261 100.049 17.7427 99.8537 17.938C99.6584 18.1332 99.3418 18.1332 99.1466 17.938Z" fill="#404040"/>
<path fill-rule="evenodd" clip-rule="evenodd" d="M74.8535 17.938C75.9137 16.8778 77.0135 16.9493 77.3419 17.0588C77.6038 17.1461 77.887 17.0045 77.9743 16.7425C78.0617 16.4806 77.9201 16.1974 77.6581 16.1101C76.9865 15.8862 75.4862 15.8911 74.1464 17.2309C73.9512 17.4261 73.9512 17.7427 74.1464 17.938C74.3417 18.1332 74.6583 18.1332 74.8535 17.938Z" fill="#404040"/>
<path d="M85 11C85 13.7614 84.1046 16 83 16C81.8954 16 81 13.7614 81 11C81 8.23858 81.8954 6 83 6C84.1046 6 85 8.23858 85 11Z" fill="#404040"/>
<path d="M93 11C93 13.7614 92.1046 16 91 16C89.8954 16 89 13.7614 89 11C89 8.23858 89.8954 6 91 6C92.1046 6 93 8.23858 93 11Z" fill="#404040"/>
<path fill-rule="evenodd" clip-rule="evenodd" d="M75.5006 17.0256C75.5006 17.0252 75.5006 17.0249 76 17C76.4993 16.975 76.4993 16.9748 76.4993 16.9746L76.4995 16.9781L76.5006 16.9953C76.5017 17.0113 76.5035 17.0364 76.5063 17.0699C76.512 17.137 76.5219 17.2379 76.5381 17.3676C76.5705 17.6273 76.6285 18.0018 76.7299 18.4527C76.9333 19.3565 77.3089 20.556 77.9959 21.7507C79.3549 24.1142 81.9493 26.5 87 26.5C92.0506 26.5 94.645 24.1142 96.004 21.7507C96.691 20.556 97.0666 19.3565 97.27 18.4527C97.3714 18.0018 97.4294 17.6273 97.4618 17.3676C97.478 17.2379 97.4879 17.137 97.4936 17.0699C97.4964 17.0364 97.4982 17.0113 97.4993 16.9953L97.5004 16.9781L97.5006 16.9748C97.5006 16.9749 97.5006 16.975 98 17C98.4993 17.0249 98.4993 17.0252 98.4993 17.0256L98.4991 17.0288L98.4987 17.0363L98.4971 17.0621C98.4956 17.0839 98.4934 17.1149 98.49 17.1546C98.4832 17.234 98.4721 17.348 98.4541 17.4917C98.4182 17.7789 98.3551 18.1856 98.2456 18.6722C98.027 19.6435 97.6214 20.944 96.8709 22.2492C95.3549 24.8858 92.4493 27.5 87 27.5C81.5506 27.5 78.645 24.8858 77.129 22.2492C76.3785 20.944 75.9729 19.6435 75.7543 18.6722C75.6449 18.1856 75.5817 17.7789 75.5458 17.4917C75.5278 17.348 75.5167 17.234 75.5099 17.1546C75.5066 17.1149 75.5043 17.0839 75.5028 17.0621L75.5012 17.0363L75.5008 17.0288L75.5006 17.0256Z" fill="#404040"/>
</svg>
