<svg width="190" height="36" viewBox="0 0 190 36" fill="none" xmlns="http://www.w3.org/2000/svg">
<path d="M24.8719 13.8271V22.3262C24.8719 23.6516 23.795 24.7285 22.4696 24.7285H20.9289V17.7867C20.9289 16.4614 19.852 15.3845 18.5266 15.3845H7.77441V13.8271C7.77441 12.5018 8.85128 11.4249 10.185 11.4249H14.4759L18.187 8.63332C18.7585 8.20255 19.5786 8.62504 19.5538 9.34571L19.4875 11.4249H22.4696C23.795 11.4249 24.8719 12.5018 24.8719 13.8271Z" fill="#EBFF00"/>
<path d="M18.5236 28.691H14.2294L10.5175 31.481C9.94341 31.9125 9.12585 31.4876 9.14904 30.7702L9.2161 28.691H6.23731C4.90778 28.691 3.83008 27.6133 3.83008 26.2838V17.7905C3.83008 16.461 4.90778 15.3833 6.23731 15.3833H18.5236C19.8532 15.3833 20.9309 16.461 20.9309 17.7905V26.2846C20.93 27.6141 19.8524 28.691 18.5236 28.691Z" fill="#262626"/>
<path d="M22.473 10.6803H20.2596L20.3019 9.37231C20.3234 8.75018 19.9937 8.18442 19.442 7.89698C18.8895 7.60955 18.2376 7.66504 17.7422 8.03779L14.2299 10.6795H10.1884C8.44793 10.6795 7.03143 12.0919 7.03143 13.8273V14.6374H6.23871C4.49996 14.6374 3.08594 16.0514 3.08594 17.7902V26.2842C3.08594 28.023 4.49996 29.4378 6.23871 29.4378H8.44711L8.40489 30.7475C8.38581 31.368 8.71551 31.932 9.26637 32.2178C9.50165 32.3396 9.75514 32.4001 10.0069 32.4001C10.3457 32.4001 10.6812 32.2907 10.967 32.077L14.4793 29.437H18.5242C20.2629 29.437 21.6778 28.0222 21.6778 26.2834V25.4749H22.473C24.2085 25.4749 25.6208 24.0626 25.6208 22.3263V13.8273C25.6208 12.0919 24.2077 10.6803 22.473 10.6803ZM20.1859 26.2842C20.1859 27.2004 19.4412 27.9459 18.5242 27.9459H14.2299C14.0684 27.9459 13.911 27.9981 13.7818 28.0959L10.0715 30.885C10.0558 30.8983 10.0169 30.9281 9.95391 30.8949C9.89261 30.8634 9.89431 30.8129 9.89513 30.7955L9.96219 28.7163C9.96883 28.5142 9.89343 28.3187 9.75262 28.1737C9.61181 28.0288 9.41962 27.9468 9.21751 27.9468H6.23871C5.32334 27.9468 4.57782 27.2021 4.57782 26.2851V17.7902C4.57782 16.874 5.32251 16.1285 6.23871 16.1285H18.5242C19.4404 16.1285 20.1859 16.874 20.1859 17.7902V26.2842ZM24.1289 22.3263C24.1289 23.24 23.3867 23.983 22.473 23.983H21.6778V17.7893C21.6778 16.0506 20.2629 14.6366 18.5242 14.6366H8.52333V13.8273C8.52333 12.9136 9.26971 12.1705 10.1884 12.1705H14.4793C14.6408 12.1705 14.7982 12.1183 14.9274 12.0206L18.6393 9.22816C18.6534 9.21659 18.694 9.18841 18.7537 9.21906C18.8141 9.25053 18.8125 9.30109 18.8117 9.32176L18.7454 11.401C18.7387 11.6031 18.8141 11.7986 18.9549 11.9435C19.0958 12.0885 19.2879 12.1705 19.4901 12.1705H22.473C23.3867 12.1705 24.1289 12.9136 24.1289 13.8273V22.3263Z" fill="#262626"/>
<path d="M9.90217 26.2286V18.3086H13.3304C14.3864 18.3086 15.2236 18.5311 15.8422 18.9761C16.4607 19.4211 16.7699 20.0887 16.7699 20.9788C16.7699 21.8613 16.4607 22.5251 15.8422 22.9701C15.2236 23.4151 14.3864 23.6376 13.3304 23.6376H10.9205L11.7464 22.823V26.2286H9.90217ZM11.7464 23.0153L10.9205 22.2007H13.3191C13.8245 22.2007 14.2167 22.0989 14.4958 21.8952C14.7749 21.684 14.9144 21.3823 14.9144 20.9901C14.9144 20.6054 14.7749 20.3112 14.4958 20.1076C14.2167 19.9039 13.8245 19.8021 13.3191 19.8021H10.9205L11.7464 18.9309V23.0153ZM8.80469 25.2103V24.2712H14.1903V25.2103H8.80469Z" fill="#EBFF00"/>
<path d="M44.7083 9.46286H50.5341V26.7429H44.7083V9.46286ZM39.3268 26.7429H33.501V9.46286H39.3268V26.7429ZM45.1033 20.374H38.9318V15.5849H45.1033V20.374ZM52.15 26.7429L59.7038 9.46286H65.4309L72.9847 26.7429H66.9614L61.3824 12.2277H63.6535L58.0745 26.7429H52.15ZM56.6428 23.7312L58.1239 19.5346H66.0727L67.5538 23.7312H56.6428ZM85.0462 22.2254L83.7873 23.4844V9.46286H89.5144V23.4844L88.2307 22.2254H94.254L92.9704 23.4844V9.46286H98.6974V26.7429H74.5795V9.46286H80.3066V23.4844L79.0476 22.2254H85.0462ZM107.94 25.6073L109.643 21.5835C110.367 21.8798 111.108 22.1102 111.865 22.2748C112.638 22.4393 113.379 22.5463 114.086 22.5957C114.794 22.6286 115.419 22.5957 115.963 22.4969C116.522 22.3982 116.966 22.2336 117.296 22.0032C117.625 21.7728 117.789 21.4684 117.789 21.0898C117.789 20.6949 117.625 20.4233 117.296 20.2752C116.966 20.1271 116.563 20.053 116.086 20.053H111.42V15.8565H115.592C116.086 15.8565 116.456 15.766 116.703 15.5849C116.966 15.3874 117.098 15.1323 117.098 14.8197C117.098 14.4741 116.95 14.2025 116.654 14.005C116.374 13.8075 115.987 13.6759 115.493 13.6101C115.016 13.5278 114.473 13.5196 113.864 13.5854C113.255 13.6348 112.622 13.7582 111.963 13.9557C111.322 14.1367 110.696 14.3753 110.087 14.6716L108.384 10.4256C109.602 9.86606 110.877 9.48755 112.21 9.29006C113.56 9.07612 114.868 9.03498 116.135 9.16664C117.419 9.28184 118.571 9.55338 119.591 9.98126C120.628 10.4092 121.451 10.9769 122.06 11.6846C122.669 12.3758 122.973 13.1986 122.973 14.1532C122.973 14.976 122.751 15.7166 122.307 16.3749C121.862 17.0167 121.254 17.5186 120.48 17.8807C119.723 18.2428 118.859 18.4238 117.888 18.4238L118.011 17.2636C119.147 17.2636 120.134 17.4693 120.974 17.8807C121.83 18.2757 122.488 18.8188 122.949 19.51C123.426 20.2012 123.664 20.9911 123.664 21.8798C123.664 22.7026 123.442 23.4432 122.998 24.1015C122.554 24.7433 121.936 25.2946 121.147 25.7554C120.373 26.1998 119.468 26.5372 118.431 26.7676C117.411 26.998 116.308 27.1132 115.123 27.1132C113.955 27.1296 112.753 27.0062 111.519 26.7429C110.301 26.496 109.108 26.1175 107.94 25.6073ZM124.279 26.7429L131.832 9.46286H137.559L145.113 26.7429H139.09L133.511 12.2277H135.782L130.203 26.7429H124.279ZM128.771 23.7312L130.252 19.5346H138.201L139.682 23.7312H128.771ZM146.708 26.7429V9.46286H152.435V18.4485L158.384 9.46286H163.865V26.7429H158.138V17.782L152.213 26.7429H146.708ZM155.274 8.47544C153.316 8.47544 151.925 8.11338 151.102 7.38926C150.296 6.64869 149.893 5.59544 149.893 4.22949H153.768C153.768 4.77258 153.875 5.17578 154.089 5.43909C154.32 5.68595 154.714 5.80938 155.274 5.80938C155.85 5.80938 156.253 5.68595 156.484 5.43909C156.714 5.17578 156.829 4.77258 156.829 4.22949H160.705C160.705 5.59544 160.285 6.64869 159.446 7.38926C158.623 8.11338 157.232 8.47544 155.274 8.47544ZM166.934 26.7429V9.46286H171.723L178.635 20.7442H176.117L182.831 9.46286H187.621L187.67 26.7429H182.362L182.313 17.461H183.152L178.561 25.1877H175.994L171.205 17.461H172.241V26.7429H166.934Z" fill="#262626"/>
</svg>
