<?xml version="1.0" encoding="utf-8"?><svg xmlns="http://www.w3.org/2000/svg" xmlns:xlink="http://www.w3.org/1999/xlink"><symbol viewBox="0 0 18 18" id="arrow" xmlns="http://www.w3.org/2000/svg"><path d="M4.5 6.75L9.00005 11.25L13.5 6.75"/></symbol><symbol viewBox="0 0 24 24" id="check" xmlns="http://www.w3.org/2000/svg"><path d="M4 13.507L8.49302 18L20.493 6"/></symbol><symbol viewBox="0 0 24 24" id="edit" xmlns="http://www.w3.org/2000/svg"><path d="M4 16.0001V20.0001L8 20.0001L18.8686 9.13146C19.2646 8.73545 19.4627 8.5374 19.5369 8.30908C19.6021 8.10823 19.6021 7.89196 19.5369 7.69112C19.4627 7.46279 19.2646 7.26474 18.8686 6.86872L17.1313 5.13146L17.1307 5.13079C16.7351 4.73523 16.5373 4.5374 16.3091 4.46325C16.1082 4.39799 15.8918 4.39799 15.691 4.46325C15.4627 4.53744 15.2646 4.73545 14.8686 5.13146L4 16.0001Z"/></symbol><symbol viewBox="0 0 24 24" id="plus" xmlns="http://www.w3.org/2000/svg"><path fill-rule="evenodd" clip-rule="evenodd" d="M10.9082 24V0H13.09V24H10.9082Z"/><path fill-rule="evenodd" clip-rule="evenodd" d="M0 10.9091L24 10.9091L24 13.0909L-9.53703e-08 13.0909L0 10.9091Z"/></symbol><symbol viewBox="0 0 18 18" id="rotate" xmlns="http://www.w3.org/2000/svg"><path d="M11.1678 3.81005C10.5153 3.61505 9.7953 3.48755 9.0003 3.48755C5.4078 3.48755 2.4978 6.39755 2.4978 9.99005C2.4978 13.59 5.4078 16.5 9.0003 16.5C12.5928 16.5 15.5028 13.59 15.5028 9.99755C15.5028 8.66255 15.0978 7.41755 14.4078 6.38255"/><path d="M12.0977 3.99L9.93018 1.5"/><path d="M12.0978 3.98999L9.57031 5.83499"/></symbol><symbol viewBox="0 0 24 24" id="trash" xmlns="http://www.w3.org/2000/svg"><path d="M4.11914 6.45117H19.8803L18.4629 21.2503H5.53654L4.11914 6.45117Z"/><path d="M16.4768 5.99734L15.4081 2.75H8.59314L7.52441 5.99734"/><path d="M12.001 11.3638L12.001 16.3366"/></symbol></svg>