<svg width="24" height="24" viewBox="0 0 24 24" fill="none" xmlns="http://www.w3.org/2000/svg">
<path d="M22.003 18.3804H19.722C18.859 18.3804 18.599 17.6814 17.052 16.1334C15.7 14.8304 15.129 14.6684 14.787 14.6684C14.314 14.6684 14.185 14.7984 14.185 15.4494V17.5014C14.185 18.0564 14.005 18.3814 12.555 18.3814C11.1483 18.2869 9.78416 17.8595 8.57497 17.1345C7.36578 16.4095 6.34612 15.4076 5.6 14.2114C3.82839 12.0064 2.59571 9.41844 2 6.65336C2 6.31136 2.13 6.00136 2.782 6.00136H5.062C5.648 6.00136 5.859 6.26236 6.089 6.86536C7.196 10.1234 9.085 12.9574 9.852 12.9574C10.146 12.9574 10.274 12.8274 10.274 12.0944V8.73836C10.177 7.20736 9.364 7.07836 9.364 6.52436C9.37428 6.3782 9.44114 6.24181 9.55037 6.14415C9.65961 6.04649 9.80261 5.99527 9.949 6.00136H13.533C14.023 6.00136 14.185 6.24536 14.185 6.83136V11.3614C14.185 11.8504 14.395 12.0124 14.543 12.0124C14.837 12.0124 15.063 11.8504 15.602 11.3124C16.7574 9.90334 17.7013 8.33352 18.404 6.65236C18.4759 6.45051 18.6119 6.27773 18.7912 6.16037C18.9705 6.04302 19.1832 5.98752 19.397 6.00236H21.678C22.362 6.00236 22.507 6.34436 22.362 6.83236C21.5324 8.69077 20.5058 10.4549 19.3 12.0944C19.054 12.4694 18.956 12.6644 19.3 13.1044C19.526 13.4464 20.326 14.1144 20.863 14.7494C21.645 15.5294 22.294 16.4314 22.785 17.4194C22.981 18.0554 22.654 18.3804 22.003 18.3804Z" fill="black"/>
</svg>
