<svg width="24" height="24" viewBox="0 0 24 24" fill="none" xmlns="http://www.w3.org/2000/svg">
<path d="M6.66667 5.75088C6.66642 6.215 6.47304 6.66003 6.12905 6.98806C5.78506 7.31608 5.31865 7.50023 4.83242 7.5C4.34619 7.49977 3.87997 7.31517 3.53632 6.98682C3.19268 6.65847 2.99976 6.21325 3 5.74913C3.00024 5.285 3.19363 4.83997 3.53762 4.51194C3.88161 4.18392 4.34802 3.99977 4.83425 4C5.32048 4.00023 5.7867 4.18483 6.13034 4.51318C6.47399 4.84153 6.66691 5.28675 6.66667 5.75088ZM6.72167 8.79588H3.055V19.7509H6.72167V8.79588ZM12.515 8.79588H8.86667V19.7509H12.4783V14.0021C12.4783 10.7996 16.8508 10.5021 16.8508 14.0021V19.7509H20.4717V12.8121C20.4717 7.41337 14 7.61463 12.4783 10.2659L12.515 8.79588Z" fill="black"/>
</svg>
