<svg width="24" height="24" viewBox="0 0 24 24" fill="none" xmlns="http://www.w3.org/2000/svg">
<path d="M23.6633 4.25C22.8292 4.64375 21.93 4.9025 20.9983 5.02625C21.9517 4.43 22.6883 3.485 23.035 2.34875C22.1358 2.91125 21.1392 3.305 20.0883 3.53C19.2325 2.5625 18.03 2 16.665 2C14.1192 2 12.0392 4.16 12.0392 6.82625C12.0392 7.20875 12.0825 7.58 12.1583 7.92875C8.30167 7.72625 4.8675 5.8025 2.58167 2.88875C2.18083 3.5975 1.95333 4.43 1.95333 5.3075C1.95333 6.98375 2.76583 8.46875 4.0225 9.3125C3.25333 9.3125 2.53833 9.0875 1.91 8.75V8.78375C1.91 11.1238 3.51333 13.0813 5.63667 13.52C4.95495 13.7137 4.23927 13.7407 3.54583 13.5988C3.84007 14.5578 4.41633 15.397 5.1936 15.9983C5.97087 16.5996 6.91007 16.9329 7.87917 16.9513C6.23643 18.3017 4.20016 19.0317 2.105 19.0213C1.73667 19.0213 1.36833 18.9988 1 18.9538C3.05833 20.3263 5.50667 21.125 8.12833 21.125C16.665 21.125 21.3558 13.7675 21.3558 7.38875C21.3558 7.175 21.3558 6.9725 21.345 6.75875C22.255 6.08375 23.035 5.22875 23.6633 4.25Z" fill="black"/>
</svg>
