<svg width="100" height="50" viewBox="0 0 100 50" fill="none" xmlns="http://www.w3.org/2000/svg">
<path d="M76.3098 5H22.7055C20.934 5 19.5 6.49372 19.5 8.33154V40.8883C19.5 42.7262 20.934 44.2199 22.6979 44.2199H76.3021C78.0659 44.2199 79.5 42.7262 79.5 40.8883V8.33154C79.5076 6.49372 78.0736 5 76.3098 5ZM41.8236 32.1763H37.2224V23.2609C37.2224 23.0888 37.0843 22.9481 36.9156 22.9481C36.7623 22.9481 36.6396 23.0576 36.6166 23.2062L33.9248 32.1763H30.6196L27.9356 23.1983C27.9126 23.0576 27.7899 22.9481 27.6365 22.9481C27.4678 22.9481 27.3298 23.0888 27.3298 23.2609V32.1763H22.7285V16.8481H26.6779H27.8589C28.7024 16.8481 29.592 17.5206 29.8374 18.3418L32.0767 25.8104C32.1917 26.1858 32.3681 26.1779 32.4831 25.8104L34.7224 18.3418C34.9678 17.5128 35.8574 16.8481 36.7009 16.8481H37.8742H41.8236V32.1763ZM58.9248 32.1763H54.3236V23.0654C54.3159 22.9168 54.2009 22.7917 54.0475 22.7917C53.9402 22.7917 53.8558 22.8464 53.8098 22.9403V22.9481C53.8098 22.9559 53.8021 22.9637 53.8021 22.9715L50.0445 31.1909C49.8067 31.7227 49.1626 32.1528 48.5797 32.1841H43.9785V16.8559H48.5797V25.7713C48.5797 25.9433 48.7178 26.0841 48.8865 26.0841C48.9939 26.0841 49.0859 26.0294 49.1396 25.9512C49.1549 25.9199 49.1702 25.8964 49.1779 25.8573L52.8359 17.8491C53.0813 17.3095 53.7408 16.8794 54.3236 16.8559H58.9248V32.1763ZM71.0414 27.2494H65.8267V32.2545H61.2254V23.8083H75.8036C75.0981 25.8026 73.2346 27.2337 71.0414 27.2494ZM75.9954 23.0263C75.9954 23.0263 68.0046 23.0263 67.9969 23.0263C64.0859 23.0263 60.8803 20.2969 60.6119 16.8481H71.026C73.8251 16.8715 76.0874 19.1864 76.0874 22.0487C76.0874 22.385 76.0567 22.7135 75.9954 23.0263Z" fill="#404040"/>
</svg>
