<svg width="100" height="50" viewBox="0 0 100 50" fill="none" xmlns="http://www.w3.org/2000/svg">
<g clip-path="url(#clip0_0_143)">
<path d="M58.5 41C67.322 41 74.5 33.822 74.5 25C74.5 16.178 67.322 9 58.5 9C55.1647 9 52.0663 10.0284 49.5 11.7812C46.9341 10.0292 43.8358 9 40.5 9C31.6753 9 24.5 16.1753 24.5 25C24.5 33.8247 31.6753 41 40.5 41C43.8358 41 46.9341 39.9708 49.5 38.2188C52.0663 39.9716 55.1647 41 58.5 41ZM40.5 39C32.7562 39 26.5 32.7438 26.5 25C26.5 17.2562 32.7562 11 40.5 11C43.2007 11 45.7111 11.7741 47.8477 13.0937C44.5742 16.0256 42.5 20.2704 42.5 25C42.5 29.7296 44.5742 33.9744 47.8477 36.9062C45.7111 38.2259 43.2007 39 40.5 39Z" fill="#404040"/>
</g>
<defs>
<clipPath id="clip0_0_143">
<rect width="50" height="50" fill="white" transform="matrix(-1 0 0 -1 74.5 50)"/>
</clipPath>
</defs>
</svg>
