<svg width="100" height="50" viewBox="0 0 100 50" fill="none" xmlns="http://www.w3.org/2000/svg">
<g clip-path="url(#clip0_0_140)">
<path d="M40.5 9C31.678 9 24.5 16.178 24.5 25C24.5 33.822 31.678 41 40.5 41C43.8353 41 46.9337 39.9716 49.5 38.2188C52.0659 39.9708 55.1642 41 58.5 41C67.3247 41 74.5 33.8247 74.5 25C74.5 16.1753 67.3247 9 58.5 9C55.1642 9 52.0659 10.0292 49.5 11.7812C46.9337 10.0284 43.8353 9 40.5 9ZM58.5 11C66.2438 11 72.5 17.2562 72.5 25C72.5 32.7438 66.2438 39 58.5 39C55.7993 39 53.2889 38.2259 51.1523 36.9062C54.4258 33.9744 56.5 29.7296 56.5 25C56.5 20.2704 54.4258 16.0256 51.1523 13.0938C53.2889 11.7741 55.7993 11 58.5 11Z" fill="#404040"/>
</g>
<defs>
<clipPath id="clip0_0_140">
<rect width="50" height="50" fill="white" transform="translate(24.5)"/>
</clipPath>
</defs>
</svg>
