<svg width="100" height="58" viewBox="0 0 100 58" fill="none" xmlns="http://www.w3.org/2000/svg">
<g clip-path="url(#clip0_0_133)">
<path d="M74.7032 38.1062L74.1594 35.3875H68.0839L67.1173 38.0869L62.2477 38.0965C64.5659 32.5216 66.8891 26.9488 69.2173 21.378C69.6137 20.4331 70.3169 19.9522 71.3537 19.957C72.1463 19.9643 73.4393 19.9643 75.2348 19.9595L79 38.099L74.7032 38.1062ZM69.4518 31.6634H73.3668L71.9047 24.8484L69.4518 31.6634ZM38.0617 19.9546L42.9578 19.9595L35.3888 38.1086L30.4323 38.1038C29.1859 33.3099 27.955 28.512 26.7396 23.7101C26.4979 22.7531 26.0194 22.0837 25.0987 21.7671C24.2794 21.4844 22.914 21.0494 21 20.4573V19.9619H28.8228C30.1761 19.9619 30.9663 20.6168 31.2201 21.9605C31.4763 23.3065 32.1191 26.7334 33.1534 32.241L38.0617 19.9546ZM49.6858 19.9595L45.8143 38.1038L41.155 38.099L45.0217 19.9546L49.6858 19.9595ZM59.135 19.6235C60.5294 19.6235 62.2863 20.0585 63.2965 20.4573L62.4797 24.22C61.5662 23.8527 60.063 23.3573 58.7991 23.3742C56.9624 23.4056 55.8266 24.1765 55.8266 24.916C55.8266 26.1195 57.7986 26.7261 59.8286 28.0408C62.1462 29.5391 62.4507 30.8852 62.4217 32.3473C62.3903 35.3826 59.8286 38.3769 54.4249 38.3769C51.9599 38.3406 51.0706 38.1328 49.0599 37.4199L49.9106 33.4928C51.9575 34.3507 52.8251 34.6238 54.5747 34.6238C56.177 34.6238 57.5521 33.9761 57.5642 32.8475C57.5738 32.0452 57.0808 31.6465 55.2828 30.6556C53.4848 29.6624 50.9618 28.2873 50.9957 25.5275C51.0368 21.9943 54.3838 19.6235 59.1374 19.6235H59.135Z" fill="#404040"/>
</g>
<defs>
<clipPath id="clip0_0_133">
<rect width="58" height="58" fill="white" transform="translate(21)"/>
</clipPath>
</defs>
</svg>
