<svg width="100" height="50" viewBox="0 0 100 50" fill="none" xmlns="http://www.w3.org/2000/svg">
<g clip-path="url(#clip0_0_149)">
<path d="M66.5 19H57.5V1.00004C57.5 0.615035 57.279 0.265035 56.933 0.0980351C56.587 -0.0669649 56.176 -0.0219649 55.874 0.220035C55.731 0.334035 41.549 11.715 37.306 14.927C32.073 18.888 31.5 20.763 31.5 23.821V43C31.5 45.757 33.743 48 36.5 48H66.5C67.052 48 67.5 47.552 67.5 47V20C67.5 19.448 67.052 19 66.5 19ZM47.436 19.271C48.513 18.069 50.087 17.645 50.95 18.323C51.814 19.002 51.641 20.527 50.564 21.729C49.487 22.931 47.914 23.355 47.05 22.676C46.186 21.997 46.359 20.473 47.436 19.271ZM38.5 43L57.034 31.294C57.324 31.111 57.5 30.792 57.5 30.449V21H62.5V35.25C62.5 35.694 62.207 36.086 61.78 36.21L38.5 43Z" fill="#404040"/>
</g>
<defs>
<clipPath id="clip0_0_149">
<rect width="50" height="50" fill="white" transform="translate(24.5)"/>
</clipPath>
</defs>
</svg>
