<svg width="100" height="50" viewBox="0 0 100 50" fill="none" xmlns="http://www.w3.org/2000/svg">
<path d="M48 0C35.593 0 25.5 10.093 25.5 22.5C25.5 34.907 35.593 45 48 45C50.595 45 52.4356 44.7044 54.0586 44.4434C55.4766 44.2154 56.815 44 58.5 44C66.665 44 71.699 49.6032 71.748 49.6602C71.944 49.8822 72.221 49.998 72.5 49.998C72.686 49.998 72.8741 49.9478 73.0391 49.8398C73.4551 49.5728 73.6131 49.0428 73.4121 48.5918C73.3021 48.3438 70.5854 42.4839 59.6934 39.9629L59.3965 39.8809C56.7045 39.2149 54.5305 38.1302 52.9375 36.6562C50.8795 34.7542 50.4864 32.8343 50.4844 32.8223C50.3924 32.3133 49.9162 31.9609 49.4102 32.0039C48.8942 32.0509 48.5 32.482 48.5 33C48.5 33.102 48.5065 35.0908 48.8535 36.9688C48.5555 36.9897 48.273 37 48 37C40.005 37 33.5 30.495 33.5 22.5C33.5 14.505 40.005 8 48 8C55.995 8 62.5 14.505 62.5 22.5C62.5 23.096 62.4627 23.6988 62.3867 24.2988C60.5007 24.0008 58.625 24 58.5 24C57.918 24 57.5 24.4995 57.5 25.0195C57.512 25.5625 57.955 25.999 58.498 26C58.518 26 60.5989 26.0198 62.4609 27.2168C65.5479 29.2008 66.287 32.1967 66.293 32.2227C66.386 32.6347 66.7284 32.9422 67.1484 32.9922C67.5654 33.0352 67.9741 32.8224 68.1621 32.4434C69.7131 29.3084 70.5 25.962 70.5 22.5C70.5 10.093 60.407 0 48 0ZM63.1348 32.002C62.8897 31.987 62.6987 32.0936 62.5938 32.2773C62.3817 32.6483 62.5398 33.3834 62.9668 34.0234C63.3998 34.6714 63.7666 35 64.0586 35C64.3266 35 64.5947 34.6645 64.4688 33.8535C64.3937 33.3695 64.1115 32.3176 63.3965 32.0586C63.304 32.0251 63.2165 32.0069 63.1348 32.002ZM59.8672 35C59.4182 35 59.0445 35.1168 58.8145 35.3418C58.2245 35.9198 58.4896 36.9355 59.3926 37.5625C59.7876 37.8355 60.3551 38 60.9121 38C61.4791 38 61.9531 37.8304 62.2461 37.5234C62.7711 36.9634 62.4696 36.1709 61.4766 35.5039C60.9846 35.1739 60.4122 35 59.8672 35Z" fill="#404040"/>
</svg>
